<svg width="84" height="84" viewBox="0 0 84 84" fill="none" xmlns="http://www.w3.org/2000/svg">
<g clip-path="url(#clip0_5_3)" filter="url(#filter0_d_5_3)">
<g clip-path="url(#clip1_5_3)">
<path opacity="0.06" d="M58.9787 0H25.0213C13.4115 0 4 9.41155 4 21.0213V54.9787C4 66.5885 13.4115 76 25.0213 76H58.9787C70.5885 76 80 66.5885 80 54.9787V21.0213C80 9.41155 70.5885 0 58.9787 0Z" fill="#F6CA4F"/>
<path d="M42.0001 63.8788C56.2925 63.8788 67.8788 52.2925 67.8788 38.0001C67.8788 23.7076 56.2925 12.1213 42.0001 12.1213C27.7076 12.1213 16.1213 23.7076 16.1213 38.0001C16.1213 52.2925 27.7076 63.8788 42.0001 63.8788Z" fill="#FF6D35"/>
<path d="M51.5505 49.6729H32.4495C30.1149 49.6729 28.2048 47.7628 28.2048 45.4282V30.5718C28.2048 28.2373 30.1149 26.3271 32.4495 26.3271H51.5505C53.8851 26.3271 55.7952 28.2373 55.7952 30.5718V45.4282C55.7952 47.7628 53.8851 49.6729 51.5505 49.6729Z" stroke="white" stroke-width="2" stroke-miterlimit="10" stroke-linecap="round" stroke-linejoin="round"/>
<path d="M28.2048 31.6329L42 40.1223L55.7952 31.6329" stroke="white" stroke-width="2" stroke-miterlimit="10" stroke-linecap="round" stroke-linejoin="round"/>
</g>
</g>
<defs>
<filter id="filter0_d_5_3" x="-0.28125" y="0.265625" width="83.5938" height="83.5938" filterUnits="userSpaceOnUse" color-interpolation-filters="sRGB">
<feFlood flood-opacity="0" result="BackgroundImageFix"/>
<feColorMatrix in="SourceAlpha" type="matrix" values="0 0 0 0 0 0 0 0 0 0 0 0 0 0 0 0 0 0 127 0" result="hardAlpha"/>
<feOffset dy="4"/>
<feGaussianBlur stdDeviation="2"/>
<feComposite in2="hardAlpha" operator="out"/>
<feColorMatrix type="matrix" values="0 0 0 0 0 0 0 0 0 0 0 0 0 0 0 0 0 0 0.25 0"/>
<feBlend mode="normal" in2="BackgroundImageFix" result="effect1_dropShadow_5_3"/>
<feBlend mode="normal" in="SourceGraphic" in2="effect1_dropShadow_5_3" result="shape"/>
</filter>
<clipPath id="clip0_5_3">
<rect width="75.5938" height="75.5938" fill="white" transform="translate(3.71875 0.265625)"/>
</clipPath>
<clipPath id="clip1_5_3">
<rect width="76" height="76" fill="white" transform="translate(4)"/>
</clipPath>
</defs>
</svg>
