<svg width="34" height="17" viewBox="0 0 34 17" fill="none" xmlns="http://www.w3.org/2000/svg">
					<path d="M24.3191 0C22.214 0 20.72 0.481132 18.8865 1.73208C17.7661 2.40566 17.2228 2.63019 16.7475 2.63019C16.1703 2.63019 15.627 2.40566 14.6084 1.73208C12.7749 0.481132 11.247 0 9.17584 0C4.04887 0 0.0423584 3.72076 0.0423584 8.5C0.0423584 13.2792 3.98096 17 9.10793 17C11.1791 17 12.673 16.5189 14.5405 15.2679C15.5591 14.5623 16.1024 14.3698 16.6796 14.3698C17.3247 14.3698 17.834 14.5943 18.8186 15.2679C20.6521 16.5189 22.18 17 24.2512 17C29.3782 17 33.3847 13.2792 33.3847 8.5C33.3847 3.72076 29.4121 0 24.3191 0ZM24.2851 12.4453C23.0968 12.4453 21.3312 11.7717 20.007 10.8415C18.7507 9.9434 17.7661 9.55849 16.7135 9.55849C15.661 9.55849 14.6763 9.9434 13.42 10.8415C12.0958 11.7717 10.3303 12.4132 9.14189 12.4132C6.93491 12.4132 5.20328 10.6811 5.20328 8.46793C5.20328 6.25472 6.96887 4.52264 9.14189 4.52264C10.3303 4.52264 12.0958 5.16415 13.42 6.09434C14.7103 6.99245 15.7289 7.37736 16.7135 7.37736C17.7661 7.37736 18.7507 6.99245 20.007 6.09434C21.3312 5.16415 23.0968 4.49057 24.2851 4.49057C26.4921 4.49057 28.2238 6.22264 28.2238 8.43585C28.2238 10.6491 26.4921 12.4453 24.2851 12.4453Z" fill="white"/>
					</svg>